<svg xmlns="http://www.w3.org/2000/svg" xmlns:xlink="http://www.w3.org/1999/xlink" width="800" height="256" viewBox="0 0 800 256" role="img" aria-label="Contact info"><defs></defs><rect x="0.5" y="0.5" width="799" height="255" rx="8" fill="#ffffff" stroke="#dcdad6"/><text x="24.0" y="44.0" font-family="-apple-system,system-ui,BlinkMacSystemFont,'Segoe UI',Roboto,'Helvetica Neue',Arial,sans-serif" font-size="20" font-weight="600" fill="#191919" text-anchor="start" >Contact info</text><g transform="translate(34.0 84.0)"><rect x="-8" y="-8" width="16" height="16" rx="3" fill="none" stroke="#191919" stroke-width="1.6"/><circle cx="0" cy="-2" r="2.6" fill="#191919"/><path d="M-4.5 5 a4.5 3.5 0 0 1 9 0" fill="#191919"/></g><text x="60.0" y="80.0" font-family="-apple-system,system-ui,BlinkMacSystemFont,'Segoe UI',Roboto,'Helvetica Neue',Arial,sans-serif" font-size="16" font-weight="600" fill="#191919" text-anchor="start" >Your Profile</text><text x="60.0" y="102.0" font-family="-apple-system,system-ui,BlinkMacSystemFont,'Segoe UI',Roboto,'Helvetica Neue',Arial,sans-serif" font-size="14" font-weight="600" fill="#0a66c2" text-anchor="start" >github.com/dxk-labs</text><g transform="translate(34.0 144.0)"><path d="M-2 2 L2 -2 M-1 -4.5 l2 -2 a3.2 3.2 0 0 1 4.5 4.5 l-2 2 M1 4.5 l-2 2 a3.2 3.2 0 0 1 -4.5 -4.5 l2 -2" fill="none" stroke="#191919" stroke-width="1.7" stroke-linecap="round"/></g><text x="60.0" y="140.0" font-family="-apple-system,system-ui,BlinkMacSystemFont,'Segoe UI',Roboto,'Helvetica Neue',Arial,sans-serif" font-size="16" font-weight="600" fill="#191919" text-anchor="start" >Website</text><text x="60.0" y="162.0" font-family="-apple-system,system-ui,BlinkMacSystemFont,'Segoe UI',Roboto,'Helvetica Neue',Arial,sans-serif" font-size="14" font-weight="600" fill="#0a66c2" text-anchor="start" >[YOUR_SITE]</text><g transform="translate(34.0 204.0)"><rect x="-8" y="-6" width="16" height="12" rx="2" fill="none" stroke="#191919" stroke-width="1.6"/><path d="M-7 -4.5 L0 1 L7 -4.5" fill="none" stroke="#191919" stroke-width="1.6"/></g><text x="60.0" y="200.0" font-family="-apple-system,system-ui,BlinkMacSystemFont,'Segoe UI',Roboto,'Helvetica Neue',Arial,sans-serif" font-size="16" font-weight="600" fill="#191919" text-anchor="start" >Email</text><text x="60.0" y="222.0" font-family="-apple-system,system-ui,BlinkMacSystemFont,'Segoe UI',Roboto,'Helvetica Neue',Arial,sans-serif" font-size="14" font-weight="600" fill="#0a66c2" text-anchor="start" >[YOUR_EMAIL]</text></svg>